<?xml version="1.0" encoding="utf-8"?>
<svg xmlns="http://www.w3.org/2000/svg" width="undefined" height="undefined" viewBox="0 0 14 14">
  <path fill="currentColor" fill-rule="evenodd" d="M 4.41 1.039 C 4.746 0.878 5.114 0.795 5.486 0.795 L 10.832 0.795 C 12.064 0.795 13.112 1.692 13.302 2.909 L 13.928 6.912 C 14.118 8.125 13.18 9.222 11.952 9.222 L 8.67 9.222 L 8.67 11.578 C 8.672 12.829 7.318 13.612 6.234 12.988 C 5.98 12.842 5.769 12.629 5.626 12.372 L 3.549 8.662 C 3.424 8.438 3.358 8.186 3.358 7.929 L 3.358 2.487 C 3.358 1.909 3.69 1.382 4.212 1.133 L 4.412 1.038 L 4.41 1.039 Z M 1.044 8.479 C 0.494 8.479 0.047 8.033 0.047 7.483 L 0.047 2.371 C 0.047 1.82 0.493 1.374 1.044 1.374 L 1.54 1.374 C 1.816 1.374 2.04 1.598 2.04 1.874 L 2.04 7.98 C 2.04 8.256 1.816 8.48 1.54 8.48 L 1.044 8.48 L 1.044 8.479 Z" clip-rule="evenodd" style=""/>
</svg>