<svg width="128" height="128" viewBox="0 0 128 128" fill="none" xmlns="http://www.w3.org/2000/svg">
<path d="M105.773 7.68267L31.6826 1.77292C19.407 0.793765 8.6618 9.9514 7.68264 22.2271L1.7729 96.3173C0.793742 108.593 9.95138 119.338 22.2271 120.317L96.3173 126.227C108.593 127.206 119.338 118.049 120.317 105.773L126.227 31.6827C127.206 19.407 118.049 8.66182 105.773 7.68267Z" fill="#999999"/>
<path d="M100.088 8.50844H28.4171C17.4218 8.50844 8.50842 17.4218 8.50842 28.4171V100.088C8.50842 111.083 17.4218 119.997 28.4171 119.997H100.088C111.083 119.997 119.997 111.083 119.997 100.088V28.4171C119.997 17.4218 111.083 8.50844 100.088 8.50844Z" fill="#111111"/>
<path d="M41.5827 25.2707V102.668H36.8655C35.8315 102.643 34.8485 102.214 34.1264 101.473C33.4043 100.732 33.0003 99.7387 33.0006 98.7044V29.1356C33.0257 28.1185 33.441 27.15 34.1604 26.4305C34.8799 25.7111 35.8484 25.2958 36.8655 25.2707H41.5827ZM41.5827 25.2707V102.569H90.9746C92.0259 102.569 93.0342 102.152 93.7776 101.408C94.521 100.665 94.9386 99.6566 94.9386 98.6053V29.1356C94.9127 28.1016 94.4837 27.1186 93.7431 26.3965C93.0025 25.6744 92.0089 25.2704 90.9746 25.2707H41.5827Z" stroke="white" stroke-width="4" stroke-linecap="round" stroke-linejoin="round"/>
<path d="M68.3796 85.2267C80.1469 85.2267 89.6863 75.6873 89.6863 63.92C89.6863 52.1526 80.1469 42.6133 68.3796 42.6133C56.6123 42.6133 47.0729 52.1526 47.0729 63.92C47.0729 75.6873 56.6123 85.2267 68.3796 85.2267Z" stroke="white" stroke-linecap="round" stroke-linejoin="round"/>
<path d="M60.6874 44.0443L62.7041 45.6448L66.9327 46.4574L66.2499 48.6733L63.8497 49.5038L61.6517 53.0496L58.0692 55.2655L53.0467 55.9305L52.9357 57.9244L54.5422 59.6606L54.4312 62.597L49.9627 59.5496L48.6724 55.8066" stroke="white" stroke-linecap="round" stroke-linejoin="round"/>
<path d="M85.7509 76.26L83.5341 74.7547L82.0941 71.8292L79.3054 66.9148L79.2133 63.702L77.0529 62.3235L73.9688 62.153L68.8899 59.9441L68.0783 55.0624L70.2565 52.7543H74.726L76.3324 54.8037L82.6104 55.2844L87.0264 53.6026M83.9087 49.3324L81.5947 50.7782L77.9388 50.1133L75.7041 49.043L72.7499 49.9478L70.6073 49.3383L72.0294 46.1988L74.5962 46.3276L77.6931 44.7519M64.7525 84.9185L68.8354 82.7244L72.6518 82.4657L75.384 81.7641L78.6533 82.5906M52.9545 64.1103L56.5925 60.3811L58.0879 63.04L63.1292 63.3908L65.4928 66.9733H68.5024L67.672 70.7213L64.8278 73.399L64.7911 75.5594L61.8181 77.8129L61.9103 81.5431L59.4179 80.6195L58.1613 77.0558L58.2168 69.7432L54.4311 69.0594L52.9545 66.1607V64.1103Z" stroke="white" stroke-linecap="round" stroke-linejoin="round"/>
</svg>
